<?xml version="1.0" encoding="utf-8"?>
<!-- Generator: Adobe Illustrator 26.5.2, SVG Export Plug-In . SVG Version: 6.00 Build 0)  -->
<svg version="1.1" id="Layer_1" xmlns="http://www.w3.org/2000/svg" xmlns:xlink="http://www.w3.org/1999/xlink" x="0px" y="0px"
	 viewBox="0 0 50 50" style="enable-background:new 0 0 50 50;" xml:space="preserve">
<style type="text/css">
	.st0{fill:#FFFFFF;}
	.st1{fill:none;stroke:#FFFFFF;stroke-miterlimit:10;}
</style>
<rect x="16.1" y="1.8" transform="matrix(1 -7.106329e-03 7.106329e-03 1 -2.328482e-02 0.2302)" class="st0" width="32.6" height="3.2"/>
<rect x="16.2" y="5.9" class="st0" width="31" height="3.1"/>
<rect x="16.2" y="9.8" class="st0" width="28.4" height="3.1"/>
<rect x="16.2" y="14.1" class="st0" width="24.6" height="3.1"/>
<rect x="16.2" y="18" class="st0" width="22.3" height="3.1"/>
<rect x="1.1" y="30" class="st0" width="13" height="3.1"/>
<rect x="9.9" y="38.1" class="st0" width="4" height="3.1"/>
<rect x="2.9" y="34.1" class="st0" width="11" height="3.1"/>
<line class="st1" x1="15" y1="49.3" x2="15" y2="1.5"/>
<rect x="16.3" y="22.1" class="st0" width="16.6" height="3.1"/>
<rect x="16.4" y="26.3" class="st0" width="15.1" height="3.1"/>
<rect x="11" y="42.2" class="st0" width="2.7" height="3.1"/>
<rect x="10.9" y="46" class="st0" width="2.7" height="3.1"/>
</svg>
